<?xml version="1.0" encoding="utf-8"?>
<!-- Generator: Adobe Illustrator 23.0.1, SVG Export Plug-In . SVG Version: 6.00 Build 0)  -->
<svg version="1.1" id="圖層_1" xmlns="http://www.w3.org/2000/svg" xmlns:xlink="http://www.w3.org/1999/xlink" x="0px" y="0px"
	 viewBox="0 0 970.2 735.3" style="enable-background:new 0 0 970.2 735.3;" xml:space="preserve">
<style type="text/css">
	.st0{enable-background:new    ;}
	.st1{fill:#74EDBD;}
	.st2{fill:#77E5E8;}
	.st3{fill:#2D4234;}
	.st4{fill:#2E3144;}
	.st5{fill:none;}
</style>
<g id="圖層_2">
	<g class="st0">
		<path class="st1" d="M245,3.3l-59,104.3h38.8l18.2-31.8h2.5l-19.7,110.9h47.5L305.7,3.3H245z"/>
		<path class="st2" d="M221.1,3.3l-59,104.3h38.8l18.2-31.8h2.5l-19.5,110.9h47.5L281.9,3.3H221.1z"/>
		<path class="st3" d="M276.2,171l1.3-7.6l-23.4,23.4c1.9,0,4,0,6.3,0L276.2,171z"/>
		<polygon class="st3" points="228,175.2 226.7,182.8 284.4,125.1 285.7,117.4 		"/>
		<path class="st3" d="M280.2,148l1.3-7.6l-46.3,46.3c2.2,0,4.3,0,6.3,0L280.2,148z"/>
		<path class="st3" d="M273.5,186.3l-0.4,0.4c0.1,0,0.3,0,0.4,0V186.3z"/>
		<polygon class="st3" points="296.4,56.2 297.8,48.6 240.1,106.3 238.8,113.9 		"/>
		<polygon class="st3" points="164.3,18.3 163.1,13 84.8,91.4 83.4,99.1 		"/>
		<polygon class="st3" points="99.6,7.3 103.6,3.3 100.4,3.3 		"/>
		<polygon class="st3" points="167.6,33.8 166.5,28.7 80.8,114.3 79.4,122 		"/>
		<polygon class="st3" points="141.4,3.3 135,3.3 92.8,45.5 91.6,53.1 		"/>
		<polygon class="st3" points="160.3,3.3 153.9,3.3 88.8,68.5 87.5,76.2 		"/>
		<polygon class="st3" points="181,96.1 179.9,90.9 147.8,122.9 149,128 		"/>
		<polygon class="st3" points="215.8,54.9 207.6,69.4 273.6,3.3 267.4,3.3 		"/>
		<polygon class="st3" points="144.5,107.3 145.6,112.5 177.6,80.4 176.6,75.2 		"/>
		<polygon class="st3" points="292.7,3.3 286.3,3.3 191.1,98.5 186,107.5 183.4,107.5 183.2,106.4 151.3,138.3 152.5,143.4 		"/>
		<polygon class="st3" points="122.5,3.3 116.1,3.3 97,22.6 95.6,30.2 		"/>
		<polygon class="st3" points="126.4,125.6 68.6,183.2 68,186.7 71.5,186.7 124.9,133.2 		"/>
		<polygon class="st3" points="231.6,96 158.2,169.3 158.3,170.1 163.8,170.1 223.2,110.7 		"/>
		<polygon class="st3" points="292.4,79.1 293.8,71.5 236.1,129.2 234.7,136.8 		"/>
		<polygon class="st3" points="197.8,154.8 206.2,140.2 176.3,170.1 182.7,170.1 		"/>
		<polygon class="st3" points="244.1,83.3 242.8,90.9 300.6,33.2 301.8,25.6 		"/>
		<polygon class="st3" points="240.5,11.3 232.4,25.8 254.7,3.3 248.5,3.3 		"/>
		<polygon class="st3" points="133.1,87.3 134.4,79.6 76.7,137.4 75.4,145 		"/>
		<polygon class="st3" points="304.6,10.3 305.7,3.3 305.2,3.3 154.7,153.8 155.9,159 		"/>
		<polygon class="st3" points="141.1,91.8 142.2,97 174.2,64.9 173.2,59.7 		"/>
		<polygon class="st3" points="137.6,76.4 138.8,81.6 171,49.4 169.8,44.2 		"/>
		<polygon class="st3" points="129,110.2 130.4,102.6 72.7,160.3 71.4,167.9 		"/>
		<polygon class="st3" points="116.9,179 118.2,171.4 102.9,186.7 109.3,186.7 		"/>
		<polygon class="st3" points="120.9,156.1 122.2,148.5 84,186.7 90.4,186.7 		"/>
		<polygon class="st3" points="288.4,102.2 289.7,94.4 232,152.1 230.7,159.8 		"/>
		<path class="st4" d="M245,3.3l-59,104.3h14.9l18.2-31.8h2.5l-5.6,31.8h8.9l18.1-31.8h2.5l-19.7,110.9h23.6L281.8,3.3H245z"/>
		<path class="st3" d="M245,3.3l-59,104.3h14.9l18.2-31.8h2.5l-5.6,31.8h8.9l18.1-31.8h2.5l-19.7,110.9h23.6L281.8,3.3H245z"/>
	</g>
	<g>
		<path class="st1" d="M470.3,95.9c-7-8.5-19-14.5-36.5-17.6l-15.8-3l-8.2,46.5c5,1.4,8.7,3,11.1,4.7c3.6,2.6,5,6.2,4.3,10.7
			c-1,5.4-4.3,10-9.7,13.3c-3.4,2.1-7.1,3.5-11.4,4.3l-6.9,38.7c20.1-1.4,36.7-6.7,50.3-16.3c15.9-11.1,25.6-26.4,29.1-45.9
			C479.3,116.2,477.1,104.5,470.3,95.9z M471.9,16.3c-10-9.1-23.5-14.2-40.8-15.8l-6.9,38.9c3.4,0.9,6.2,2.5,8.7,4.5
			c4.5,3.9,6.5,8.7,5.7,14.5h47.1C488.6,41.2,484,27.2,471.9,16.3z"/>
		<path class="st2" d="M440.6,95.9c-7-8.5-19-14.5-36.5-17.6l-15.8-3l-8.2,46.5c5,1.4,8.7,3,11.1,4.7c3.6,2.6,5,6.2,4.3,10.7
			c-1,5.4-4.3,10-9.7,13.3c-3.4,2.1-7.1,3.5-11.4,4.3l-6.9,38.7c20.1-1.4,36.7-6.7,50.3-16.3c15.9-11.1,25.6-26.4,29.1-45.9
			C449.7,116.2,447.6,104.5,440.6,95.9z M442.4,16.3c-10-9.1-23.5-14.2-40.8-15.8l-6.9,38.9c3.4,0.9,6.2,2.5,8.7,4.5
			c4.5,3.9,6.5,8.7,5.7,14.5h47.1C459,41.2,454.5,27.2,442.4,16.3z"/>
		<path class="st3" d="M367.8,135.6c-0.8,0-1.6,0-2.3,0l-37.5,37.5c0.9,1.2,1.9,2.2,3.1,3.2l36.9-36.9
			C367.7,138.2,367.7,136.9,367.8,135.6z"/>
		<path class="st3" d="M371.9,147.9l-34,34c1.3,0.8,2.6,1.6,3.9,2.3l33.6-33.6c-0.4-0.3-0.8-0.5-1.2-0.8
			C373.5,149.3,372.7,148.6,371.9,147.9z"/>
		<path class="st3" d="M389.9,155.2c-1.9-0.1-3.8-0.5-5.4-0.9l-33.9,33.9c1.6,0.5,3.1,1,4.8,1.6L389.9,155.2z"/>
		<path class="st3" d="M373.9,114.5l40-40l-3.9-0.8c-0.5-0.1-0.9-0.1-1.4-0.3l-39.6,39.6C370.5,113.6,372.2,114.2,373.9,114.5z"/>
		<path class="st3" d="M346.4,135.6l-25.6,25.6c0.5,1.6,1.2,3,1.9,4.4l30-30C350.6,135.6,348.5,135.6,346.4,135.6z"/>
		<path class="st3" d="M327.5,135.6l-9.4,9.4c0,2.1,0.1,4,0.3,6l15.4-15.4C331.9,135.6,329.7,135.6,327.5,135.6z"/>
		<path class="st3" d="M440.2,79.7l-40,40l0.5,0.1c1.7,0.3,3.2,0.6,4.7,1l39.7-39.7C443.6,80.5,441.9,80.1,440.2,79.7z"/>
		<path class="st3" d="M383.1,193.6c1.2,0,2.5,0,3.6,0c0.9,0,1.8,0,2.7,0l86.7-86.7c-0.5-1.6-1-3.1-1.8-4.5L383.1,193.6z"/>
		<path class="st3" d="M415.3,123.6c1.7,0.6,3.1,1.3,4.3,2.1l39.1-39.1c-1.3-0.8-2.7-1.4-4.1-2.1L415.3,123.6z"/>
		<path class="st3" d="M461.3,58.6h6.3l18.2-18.2c-0.3-1.7-0.8-3.4-1.3-5L461.3,58.6z"/>
		<path class="st3" d="M442.4,58.6h6.3l32-32c-0.8-1.3-1.6-2.6-2.6-3.8L442.4,58.6z"/>
		<path class="st3" d="M480.2,58.6h5.6c0.4-2.2,0.5-4.3,0.6-6.3L480.2,58.6z"/>
		<path class="st3" d="M423.8,39.4c1.7,0.4,3.1,1,4.5,1.7l32.5-32.5c-1.4-0.8-2.8-1.4-4.3-2.1L423.8,39.4z"/>
		<path class="st3" d="M334.3,72.1c0,2.1,0.1,4,0.4,6l77.6-77.6c-2.3,0.1-4.7,0.4-7,0.6L334.3,72.1z"/>
		<polygon class="st3" points="384.3,116.6 389.7,117.6 429.8,77.5 424.5,76.5 		"/>
		<path class="st3" d="M337.2,88.1c0.6,1.4,1.3,2.8,2.1,4.3l91.7-91.7c-1.9-0.1-3.9-0.3-6-0.4L337.2,88.1z"/>
		<path class="st3" d="M404.8,39.5c2.3-0.5,4.8-0.9,7.4-1l34.9-34.9c-1.7-0.4-3.4-0.8-5-1.2L404.8,39.5z"/>
		<path class="st3" d="M387.1,57.1l-42.4,42.6c1,1,2.1,2.1,3.2,3.1l40-40.1C387.2,61,386.9,59.2,387.1,57.1z"/>
		<path class="st3" d="M355.4,107.8c1.3,0.8,2.7,1.4,4.3,2.1l38.9-38.9c-1.7-0.6-3.1-1.3-4.4-1.9L355.4,107.8z"/>
		<path class="st3" d="M402.8,154.8L365.6,192c1.8,0.3,3.6,0.5,5.6,0.8l40.5-40.5C408.9,153.5,406.1,154.3,402.8,154.8z"/>
		<path class="st3" d="M437.8,50.6l34.2-34.3l0,0c-1.2-1-2.2-1.9-3.5-2.8l-33,33.1C436.5,47.9,437.3,49.2,437.8,50.6z"/>
		<path class="st3" d="M338.4,49.2c-1,2.8-1.8,5.8-2.5,8.8l53.7-53.7c-3.4,0.9-6.6,2.1-9.7,3.4L338.4,49.2z"/>
		<path class="st3" d="M425.2,137.1c-0.1,0.8-0.4,1.6-0.5,2.2l44.5-44.5c-0.9-1-2.1-2.1-3.2-3.1l-40.9,40.9
			C425.5,134,425.5,135.5,425.2,137.1z"/>
		<path class="st3" d="M426.9,187.4c3.8-1.3,7.5-2.8,11-4.7l32.9-32.9c1.6-3.2,2.8-6.6,3.9-10.1L426.9,187.4z"/>
		<path class="st3" d="M410.1,191.8l67.4-67.5c0.1-2.2,0.3-4.4,0.1-6.5l-74.9,75C405.2,192.6,407.6,192.2,410.1,191.8z"/>
		<path class="st3" d="M440.6,95.9c-5-6.3-12.9-11.1-23.7-14.5l-7.1,40.4c5,1.4,8.7,3,11.1,4.7c3.6,2.6,5,6.2,4.3,10.7
			c-1,5.4-4.3,10-9.7,13.3c-3.4,2.1-7.1,3.5-11.4,4.3l-5.7,32.5c7.2-2.6,13.7-6,19.8-10.1c15.9-11.1,25.6-26.4,29.1-45.9
			C449.7,116.2,447.6,104.5,440.6,95.9z M442.4,16.3c-3.8-3.4-7.9-6.1-12.6-8.4l-5.6,31.6c3.4,0.9,6.2,2.5,8.7,4.5
			c4.5,3.9,6.5,8.7,5.7,14.5h17.6C459,41.2,454.5,27.2,442.4,16.3z"/>
		<path class="st3" d="M440.6,95.9c-5-6.3-12.9-11.1-23.7-14.5l-7.1,40.4c5,1.4,8.7,3,11.1,4.7c3.6,2.6,5,6.2,4.3,10.7
			c-1,5.4-4.3,10-9.7,13.3c-3.4,2.1-7.1,3.5-11.4,4.3l-5.7,32.5c7.2-2.6,13.7-6,19.8-10.1c15.9-11.1,25.6-26.4,29.1-45.9
			C449.7,116.2,447.6,104.5,440.6,95.9z M442.4,16.3c-3.8-3.4-7.9-6.1-12.6-8.4l-5.6,31.6c3.4,0.9,6.2,2.5,8.7,4.5
			c4.5,3.9,6.5,8.7,5.7,14.5h17.6C459,41.2,454.5,27.2,442.4,16.3z"/>
	</g>
	<g>
		<path class="st1" d="M539.8,143.3c-8.6,0-15.7,2.3-21.3,6.9c-5.7,4.6-9.1,10.8-10.4,18.5s0,13.9,3.9,18.5c4,4.8,10.3,7.1,18.8,7.1
			h0.1L539.8,143.3L539.8,143.3z"/>
		<path class="st2" d="M551.6,143.3c-8.6,0-15.7,2.3-21.3,6.9c-5.7,4.6-9.1,10.8-10.4,18.5c-1.3,7.7,0,13.9,3.9,18.5
			c4,4.8,10.3,7.1,18.8,7.1h0.1L551.6,143.3L551.6,143.3z"/>
		<path class="st3" d="M535.5,194c3-0.4,5.7-1,8.2-1.9l17.2-17.2c0.8-1.9,1.3-4,1.7-6.3c0.1-0.6,0.3-1.3,0.3-2.1L535.5,194z"/>
		<path class="st3" d="M518.7,192.2c1.4,0.6,3.1,1.2,4.8,1.4l38.3-38.3c-0.5-1.4-1.3-2.8-2.2-4L518.7,192.2z"/>
		<path class="st3" d="M509.2,182.9c0.6,1.4,1.4,2.7,2.3,3.9l41.1-41.1c-1.4-0.6-3-1.2-4.6-1.5L509.2,182.9z"/>
		<path class="st3" d="M509.1,164.2c-0.5,1.4-0.9,3-1.2,4.5c-0.3,1.2-0.3,2.2-0.4,3.2l28.5-28.5c-2.7,0.3-5.3,0.8-7.7,1.4
			L509.1,164.2z"/>
		<path class="st4" d="M530.4,150.2c-5.7,4.6-9.1,10.8-10.4,18.5c-1.3,7.7,0,13.9,3.9,18.5c1.9,2.3,4.4,4,7.3,5.1l8.4-47.3
			C536,146.2,533.1,148,530.4,150.2z"/>
		<path class="st4" d="M530.4,150.2c-5.7,4.6-9.1,10.8-10.4,18.5c-1.3,7.7,0,13.9,3.9,18.5c1.9,2.3,4.4,4,7.3,5.1l8.4-47.3
			C536,146.2,533.1,148,530.4,150.2z"/>
	</g>
	<path class="st1" d="M693.1,369.9L693.1,369.9c-0.2-5.1-0.6-9.9-1.3-14.6l-72.1,72.1c-2.2,9-5,17-7.8,23.9
		c-1.6,3.7-3.4,7.2-5.3,10.3c0,0.2-0.2,0.2-0.2,0.3c-0.2,0.2-0.3,0.5-0.3,0.6c-0.6,1.1-1.3,2.1-1.9,3c-1.6,2.4-3.2,4.5-5,6.4
		c-0.2,0.2-0.3,0.5-0.5,0.6c-0.2,0.3-0.5,0.5-0.6,0.8c-0.2,0.2-0.3,0.3-0.5,0.5l0,0c-0.2,0.2-0.5,0.5-0.6,0.6
		c-0.3,0.3-0.5,0.5-0.8,0.8c-0.3,0.2-0.5,0.5-0.8,0.6c-5.1,4.6-10.4,7.4-16,8c-1.1,0.2-2.2,0.2-3.4,0.2l0,0l-0.6,4l-1.8,9.8
		l-3.5,19.5l-1.8,9.8l-1.1,6.6h0.2c31.1,0,57.7-11.1,79.8-33c18.6-18.6,31.9-43.2,39.6-73.7c0-0.2,0.2-0.3,0.2-0.5
		c0.2-0.3,0.2-0.8,0.3-1.1c0.2-0.3,0.2-0.8,0.3-1.1c1.1-4.6,2.1-9.3,2.9-14.3C692.6,395.4,693.6,382.1,693.1,369.9z"/>
	<path class="st2" d="M652.3,369.9L652.3,369.9c-0.2-5.1-0.6-9.9-1.3-14.6l-72.1,72.1c-2.2,9-5,17-7.8,23.9
		c-1.6,3.7-3.4,7.2-5.3,10.3c0,0.2-0.2,0.2-0.2,0.3c-0.2,0.2-0.3,0.5-0.3,0.6c-0.6,1.1-1.3,2.1-1.9,3c-1.6,2.4-3.2,4.5-5,6.4
		c-0.2,0.2-0.3,0.5-0.5,0.6c-0.2,0.3-0.5,0.5-0.6,0.8c-0.2,0.2-0.3,0.3-0.5,0.5l0,0c-0.2,0.2-0.5,0.5-0.6,0.6
		c-0.3,0.3-0.5,0.5-0.8,0.8c-0.3,0.2-0.5,0.5-0.8,0.6c-5.1,4.6-10.4,7.4-16,8c-1.1,0.2-2.2,0.2-3.4,0.2l0,0l-0.6,4l-1.8,9.8
		l-3.5,19.5l-1.8,9.8l-1.1,6.6h0.2c31.1,0,57.7-11.1,79.8-33c18.6-18.6,31.9-43.2,39.6-73.7c0-0.2,0.2-0.3,0.2-0.5
		c0.2-0.3,0.2-0.8,0.3-1.1c0.2-0.3,0.2-0.8,0.3-1.1c1.1-4.6,2.1-9.3,2.9-14.3C651.6,395.4,652.7,382.1,652.3,369.9z"/>
	<g>
		<path class="st1" d="M197.9,442.2h-67.1c1.9,3.8,2.4,8.5,1.4,13.9c-1.4,8-5.4,14.4-12.2,19.4c-6.7,5-14.9,7.4-24.5,7.4
			c-2.2,0-4.3-0.2-6.4-0.3L79,533.6c2.1,0.2,4,0.2,6.2,0.2c29.6,0,54.9-6.7,75.6-20c20.8-13.5,33-30.8,36.8-52.1
			C199,454.5,199,448.1,197.9,442.2z"/>
		<path class="st2" d="M218.5,421.5h-67.1c1.9,3.8,2.4,8.5,1.4,13.9c-1.4,8-5.4,14.4-12.2,19.4c-6.7,5-14.9,7.4-24.5,7.4
			c-2.2,0-4.3-0.2-6.4-0.3L99.7,513c2.1,0.2,4,0.2,6.2,0.2c29.6,0,54.9-6.7,75.6-20c20.8-13.5,33-30.8,36.8-52.1
			C219.6,434,219.6,427.4,218.5,421.5z"/>
		<path class="st3" d="M184.7,299.9l-42.6,42.6c1.4,1.4,2.6,2.9,3.4,4.6l44-44C187.9,302,186.3,300.9,184.7,299.9z"/>
		<path class="st3" d="M132,456.8l43.6-43.6c-1.8-1-3.7-1.8-5.6-2.4l-37.5,37.5c0.3,2.4,0.2,5-0.3,7.8
			C132.2,456.3,132,456.6,132,456.8z"/>
		<path class="st3" d="M154.1,407.4l0.5-3c2.6-0.5,5-1.1,7.4-1.8l45.5-45.5c0.5-1.8,1-3.7,1.3-5.4c0.3-1.4,0.5-2.9,0.6-4.3
			l-86.8,86.8c1.6,0.8,3,1.9,4.2,3c0.2,0.2,0.3,0.3,0.3,0.5l29.6-29.6C156,407.7,155.1,407.6,154.1,407.4z"/>
		<path class="st3" d="M207.1,325.4L102.4,430.2h1.6c2.1,0,4.2,0.2,6.1,0.3l98.8-98.8C208.4,329.6,207.9,327.5,207.1,325.4z"/>
		<path class="st3" d="M106.4,386.1h-8l-18.3,18.3c-0.6,3.2-1.1,6.6-1.8,9.8L106.4,386.1z"/>
		<path class="st3" d="M201.7,315c-1.1-1.4-2.2-3-3.7-4.5l-51.4,51.4c-1.6,7.2-5.3,13-11.2,17.3c-3.4,2.4-7.2,4.2-11.4,5.3
			l-45.6,45.6h8L201.7,315z"/>
		<path class="st3" d="M131.5,336.9l42.3-42.3c-1.9-0.8-4-1.4-5.9-2.1l-43.2,43.2C127.2,336,129.5,336.5,131.5,336.9z"/>
		<path class="st3" d="M66,466.5L20.5,512c0.2,0.2,0.3,0.3,0.5,0.5c1.3,1.1,2.4,2.2,3.8,3.2l43.9-43.9
			C67.5,470.4,66.7,468.6,66,466.5z"/>
		<path class="st3" d="M132.8,287.5c-1,0-1.8,0-2.7,0c-1.8,0-3.5,0-5.3,0.2l-76.6,76.6h8L132.8,287.5z"/>
		<path class="st3" d="M183.4,493.6l-13.8,13.8C175.1,503,179.6,498.6,183.4,493.6z"/>
		<path class="st3" d="M197.2,439.6c-0.5-2.1-1.1-4-2.1-5.9l-99.8,99.8c3-0.2,5.9-0.5,8.8-0.8L197.2,439.6z"/>
		<path class="st3" d="M197.2,463.8c0.2-0.6,0.3-1.4,0.5-2.1c0.5-2.4,0.6-4.8,0.8-7.2l-74.8,74.8c3.8-1,7.5-1.9,11.2-3.2
			L197.2,463.8z"/>
		<path class="st3" d="M189,423.8c-1.3-1.4-2.6-2.7-4-4L71.6,533.2c2.4,0.2,5,0.3,7.5,0.5L189,423.8z"/>
		<path class="st3" d="M107.5,481.3c-3,0.8-6.1,1.3-9.5,1.4l-46.8,46.8c2.1,0.6,4.2,1.1,6.4,1.6L107.5,481.3z"/>
		<path class="st3" d="M83.8,360.7c2.1-6.9,5.9-12.7,11.9-17.1c3.4-2.6,7-4.5,11.2-5.8l48.2-48.2c-2.2-0.3-4.6-0.8-7-1l-75.6,75.6h8
			L83.8,360.7z"/>
		<path class="st3" d="M107.2,289.2c-3.4,0.5-6.7,1.1-9.9,1.9l-73,73h8L107.2,289.2z"/>
		<path class="st3" d="M71.6,300.6c-4.3,2.2-8.3,4.8-12.3,7.7c-12.2,8.8-21.5,19.7-27.7,32.4L71.6,300.6z"/>
		<path class="st3" d="M83.3,481.4c-2.1-0.5-4.2-1.3-5.9-2.1l-43.1,43.1c1.8,1,3.5,1.9,5.3,2.7L83.3,481.4z"/>
		<path class="st3" d="M60.1,456.4h-8L10,498.6c1,1.8,1.9,3.4,3,5L60.1,456.4z"/>
		<path class="st3" d="M12.1,456.4H4l-0.8,0.8c-0.3,2.9-0.6,5.8-0.6,8.6L12.1,456.4z"/>
		<path class="st3" d="M36.1,456.4h-8L3.6,480.9c0.5,2.2,1,4.3,1.6,6.4L36.1,456.4z"/>
		<path class="st4" d="M197.9,442.2h-46.9c-2.1,5-5.6,9.1-10.3,12.7c-2.9,2.1-5.9,3.7-9.3,5c-1.9,6.4-5.8,11.5-11.4,15.7
			c-4.2,3-9,5.1-14.1,6.2L99.7,513c2.1,0.2,4,0.2,6.2,0.2c29.6,0,54.9-6.7,75.6-20c1.6-1.1,3.2-2.1,4.8-3.2
			c5.8-8.5,9.6-17.9,11.5-28.2C199,454.5,199,448.1,197.9,442.2z"/>
		<path class="st3" d="M197.9,442.2h-46.9c-2.1,5-5.6,9.1-10.3,12.7c-2.9,2.1-5.9,3.7-9.3,5c-1.9,6.4-5.8,11.5-11.4,15.7
			c-4.2,3-9,5.1-14.1,6.2L99.7,513c2.1,0.2,4,0.2,6.2,0.2c29.6,0,54.9-6.7,75.6-20c1.6-1.1,3.2-2.1,4.8-3.2
			c5.8-8.5,9.6-17.9,11.5-28.2C199,454.5,199,448.1,197.9,442.2z"/>
	</g>
	<g>
		<path class="st1" d="M451.4,369.9L451.4,369.9c-0.2-5.1-0.6-9.9-1.3-14.6L378,427.4c-2.2,9-5,17-7.8,23.9
			c-1.6,3.7-3.4,7.2-5.3,10.3c0,0.2-0.2,0.2-0.2,0.3c-0.2,0.2-0.3,0.5-0.3,0.6c-0.6,1.1-1.3,2.1-1.9,3c-1.6,2.4-3.2,4.5-5,6.4
			c-0.2,0.2-0.3,0.5-0.5,0.6c-0.2,0.3-0.5,0.5-0.6,0.8c-0.2,0.2-0.3,0.3-0.5,0.5l0,0c-0.2,0.2-0.5,0.5-0.6,0.6
			c-0.3,0.3-0.5,0.5-0.8,0.8c-0.3,0.2-0.5,0.5-0.8,0.6c-5.1,4.6-10.4,7.4-16,8c-1.1,0.2-2.2,0.2-3.4,0.2l0,0l-0.6,4l-1.8,9.8
			l-3.5,19.5l-1.8,9.8l-1.1,6.6h0.2c31.1,0,57.7-11.1,79.8-33c18.6-18.6,31.9-43.2,39.6-73.7c0-0.2,0.2-0.3,0.2-0.5
			c0.2-0.3,0.2-0.8,0.3-1.1c0.2-0.3,0.2-0.8,0.3-1.1c1.1-4.6,2.1-9.3,2.9-14.3C450.8,395.4,451.9,382.1,451.4,369.9z"/>
		<path class="st2" d="M410.6,369.9L410.6,369.9c-0.2-5.1-0.6-9.9-1.3-14.6l-72.1,72.1c-2.2,9-5,17-7.8,23.9
			c-1.6,3.7-3.4,7.2-5.3,10.3c0,0.2-0.2,0.2-0.2,0.3c-0.2,0.2-0.3,0.5-0.3,0.6c-0.6,1.1-1.3,2.1-1.9,3c-1.6,2.4-3.2,4.5-5,6.4
			c-0.2,0.2-0.3,0.5-0.5,0.6c-0.2,0.3-0.5,0.5-0.6,0.8c-0.2,0.2-0.3,0.3-0.5,0.5l0,0c-0.2,0.2-0.5,0.5-0.6,0.6
			c-0.3,0.3-0.5,0.5-0.8,0.8c-0.3,0.2-0.5,0.5-0.8,0.6c-5.1,4.6-10.4,7.4-16,8c-1.1,0.2-2.2,0.2-3.4,0.2l0,0l-0.6,4l-1.8,9.8
			l-3.5,19.5l-1.8,9.8l-1.1,6.6h0.2c31.1,0,57.7-11.1,79.8-33c18.6-18.6,31.9-43.2,39.6-73.7c0-0.2,0.2-0.3,0.2-0.5
			c0.2-0.3,0.2-0.8,0.3-1.1c0.2-0.3,0.2-0.8,0.3-1.1c1.1-4.6,2.1-9.3,2.9-14.3C409.9,395.4,411,382.1,410.6,369.9z"/>
		<path class="st3" d="M373.4,287.6l-5.3,5.3l-123,123c0.3-1.9,0.6-4,1-5.9c0.2-1.3,0.5-2.4,0.6-3.7l118.7-118.8c1.1,0,2.2,0,3.4,0
			c0.2,0,0.3,0,0.3,0c0.3,0,0.6,0,1,0l0,0C371.3,287.5,372.4,287.5,373.4,287.6z"/>
		<path class="st3" d="M271.9,341.1l36.4-36.4c-6.6,4.2-12.8,9.1-18.7,14.9C282.9,326.1,277,333.1,271.9,341.1z"/>
		<path class="st3" d="M312.5,465.6c-0.3-1.1-0.6-2.4-1-3.7L264,509.5c1.3,1.4,2.6,2.7,4,4.2l45.6-45.6
			C313.2,467.2,312.7,466.4,312.5,465.6z"/>
		<path class="st3" d="M347.6,289.2c-3.5,0.6-7,1.4-10.4,2.4L255.8,373c-1.4,3.8-2.7,7.8-4,12L347.6,289.2z"/>
		<path class="st3" d="M451.6,378c0-2.7,0-5.4,0-8L370,451.3c-2.4,5.3-5,10.1-7.7,14.3c-7.7,11.1-15.9,17.1-24.8,18.3l-44.8,44.8
			c1.9,0.6,4,1.3,6.1,1.9L451.6,378z"/>
		<path class="st3" d="M437.1,320.1l-52.2,52.2l0,0c-0.2-2.6-0.3-5.1-0.6-7.4l49.5-49.5c0.8,1,1.6,2.1,2.2,3
			c0.3,0.3,0.5,0.6,0.8,1.1l0,0C436.8,319.8,437,320,437.1,320.1z"/>
		<path class="st3" d="M426.1,307.2l-45.3,45.3l0,0c-0.6-1.6-1.4-3-2.2-4.5c0,0,0,0,0-0.2c-0.2-0.2-0.2-0.3-0.3-0.6V347l43.6-43.6
			C423.2,304.6,424.7,305.9,426.1,307.2z"/>
		<path class="st3" d="M422.6,479c3.7-5.6,7-11.7,10.1-18.1l-64.9,64.9c5.6-2.2,11.1-5.1,16.3-8.3L422.6,479z"/>
		<path class="st3" d="M394.5,290.5l-31.7,31.7L242.7,442.3c0-2.7,0.2-5.4,0.3-8.3l121.6-121.6l23.4-23.4
			C390.2,289.4,392.5,289.9,394.5,290.5z"/>
		<path class="st3" d="M449.2,404.4c0.5-3.2,1-6.2,1.3-9.3L312.4,533c2.4,0.3,4.8,0.5,7.4,0.6L449.2,404.4z"/>
		<path class="st3" d="M323.9,481.4c-1.6-1-3-2.2-4.3-3.7l-42.8,42.8c1.6,1.1,3.2,2.1,5,3L323.9,481.4z"/>
		<path class="st3" d="M309.5,447.8c-0.2-2.6-0.2-5.1-0.2-8L254.1,495c1,1.8,1.9,3.4,2.9,5.1L309.5,447.8z"/>
		<path class="st3" d="M442.3,435.3c1.1-3.5,2.1-7.2,2.9-10.9L336.1,533.5c3-0.3,6.2-0.6,9.1-1.1L442.3,435.3z"/>
		<path class="st3" d="M445.2,336.1l-61.5,61.5v-0.2c0.3-3,0.6-5.9,1-8.8l58.3-58.3C443.7,332.3,444.4,334.2,445.2,336.1
			L445.2,336.1z"/>
		<path class="st3" d="M450.1,355.4l-71.9,71.9c0.2-0.5,0.2-0.8,0.3-1.3c0.6-2.9,1.3-5.9,1.9-9.1l0,0l68.4-68.4
			C449.3,350.7,449.6,353,450.1,355.4z"/>
		<path class="st3" d="M316.2,393c1-4,2.1-7.7,3.2-11.2l-75.9,75.9c0.2,2.4,0.5,4.8,0.8,7.2L316.2,393z"/>
		<path class="st3" d="M310.8,422.5c0.3-3,0.8-6.1,1.3-9.5l-64.9,65c0.6,2.1,1.3,4,1.9,6.1L310.8,422.5z"/>
		<path class="st3" d="M412,297.1l-42.3,42.3l0,0c-1.3-0.6-2.7-1.3-4.2-1.6c0,0,0,0-0.2,0c-0.2,0-0.5-0.2-0.6-0.2
			c-0.3-0.2-0.6-0.2-1.1-0.2l42.9-42.9C408.5,295.3,410.2,296.1,412,297.1z"/>
	</g>
	<g>
		<path class="st3" d="M554.1,465.6c-0.5-1.4-1-2.9-1.3-4.5l-47.7,47.7c1.3,1.4,2.6,2.9,3.8,4.2l45.8-45.8
			C554.6,466.7,554.2,466,554.1,465.6z"/>
		<path class="st3" d="M558.1,391.6c1-4,2.1-7.8,3.4-11.4l-76.6,76.6c0.2,2.4,0.5,4.8,0.8,7.2L558.1,391.6z"/>
		<path class="st3" d="M604.4,337.3c2.2,0.3,4.3,0.8,6.2,1.8l42.3-42.3c-1.8-1-3.5-1.8-5.4-2.6L604.4,337.3z"/>
		<path class="st3" d="M552.5,421.4c0.3-3,0.8-6.2,1.4-9.5l-65.4,65.4c0.6,2.1,1.3,4.2,1.9,6.1L552.5,421.4z"/>
		<path class="st3" d="M691,403.1c0.5-3,0.8-6.1,1.1-9.1L553.3,532.8c2.4,0.3,4.8,0.5,7.4,0.6L691,403.1z"/>
		<path class="st3" d="M591.1,479c-4.2,2.9-8.5,4.5-12.8,4.8l-44.5,44.5c1.9,0.6,4,1.4,6.1,1.9L591.1,479z"/>
		<path class="st3" d="M551,446.8c-0.2-2.6-0.2-5.1,0-8l-55.7,55.7c1,1.8,1.9,3.5,2.9,5.1L551,446.8z"/>
		<path class="st3" d="M625.7,364.2c0.3,2.2,0.6,4.6,0.8,7.2l51.9-51.9c-1.1-1.6-2.2-3.2-3.4-4.6L625.7,364.2z"/>
		<path class="st3" d="M565,481.1c-1.6-1-3-2.2-4.3-3.7l-42.9,42.9c1.6,1.1,3.2,2.1,5,3L565,481.1z"/>
		<path class="st3" d="M619.3,346.6c1.1,1.6,1.9,3.2,2.9,5.1l45-45c-1.4-1.3-2.9-2.6-4.3-3.7L619.3,346.6z"/>
		<path class="st3" d="M626.3,387.7c-0.2,2.9-0.5,5.8-0.8,8.8l61-61c-0.8-1.9-1.6-3.8-2.4-5.6L626.3,387.7z"/>
		<path class="st3" d="M622.3,415.8c-0.6,3.5-1.4,7-2.2,10.3l71.4-71.4c-0.3-2.2-0.8-4.5-1.3-6.7L622.3,415.8z"/>
		<path class="st3" d="M693.1,377c0-2.7,0-5.3-0.2-7.8l-80.6,80.6c-2.6,6.1-5.4,11.5-8.5,16c-0.5,0.8-1.1,1.4-1.8,2.2L693.1,377z"/>
		<path class="st3" d="M635.4,290.3c-2.2-0.5-4.3-1-6.7-1.3L484.9,432.9c-0.2,2.9-0.3,5.6-0.3,8.3L635.4,290.3z"/>
		<path class="st3" d="M665.9,476.3c3.4-5.4,6.4-11.1,9.1-17.1l-67.3,67.3c5.3-2.1,10.4-4.5,15.5-7.4L665.9,476.3z"/>
		<path class="st3" d="M684.3,433.9c1-3.5,1.9-7.2,2.9-10.9L576.8,533.3c3-0.3,6.1-0.6,9.1-1.1L684.3,433.9z"/>
		<path class="st3" d="M487.8,409.8c-0.3,1.6-0.5,3.2-0.8,4.8l127.2-127.2c-1.3,0-2.4-0.2-3.7-0.2c-1.4,0-2.9,0-4.3,0.2L488.7,404.9
			C488.4,406.6,488.1,408.2,487.8,409.8z"/>
		<path class="st3" d="M498,371.5c-1.4,3.8-2.9,8-4.2,12.2l94.2-94.2c-3.5,0.6-7,1.4-10.6,2.6L498,371.5z"/>
		<path class="st3" d="M515.5,338.1l31.4-31.4c-5.4,3.8-10.7,8-15.7,13C525.4,325.3,520.1,331.3,515.5,338.1z"/>
	</g>
	<g>
		<path class="st1" d="M871.1,397.5l-50.1,53.8l33.2,76.1h76.1L871.1,397.5z M781.2,527.2l7.2-41.2l-38.3,41.2H781.2z"/>
		<path class="st2" d="M833.9,397.5l-50.1,53.8l33.2,76.1H893L833.9,397.5z M744,527.2l7.2-41.2L713,527.2H744z"/>
		<polygon class="st3" points="904.4,470.4 852.2,522.7 854.2,527.2 855.7,527.2 906.9,476 		"/>
		<polygon class="st3" points="742.8,375.5 822,296.3 822.4,293.9 816.3,293.9 744.4,365.8 		"/>
		<polygon class="st3" points="749.5,336.6 747.9,346.2 800.3,293.9 792.3,293.9 		"/>
		<polygon class="st3" points="816.9,325.4 818.5,315.6 739.2,394.9 737.5,404.7 		"/>
		<polygon class="st3" points="754.8,307.3 753,317.1 776.1,293.9 768.1,293.9 		"/>
		<polygon class="st3" points="891.9,443 889.3,437.4 837.6,489.1 840,494.7 		"/>
		<polygon class="st3" points="899.4,459.5 896.8,453.9 844.9,505.9 847.4,511.5 		"/>
		<polygon class="st3" points="881.8,420.9 830.2,472.5 832.8,478.1 884.4,426.3 		"/>
		<path class="st3" d="M786,500.6l1.8-9.8l-36.4,36.4c2.6,0,5.1,0,8,0L786,500.6z"/>
		<path class="st3" d="M782.5,520.2l-7,7c1.9,0,3.8,0,5.9,0L782.5,520.2z"/>
		<polygon class="st3" points="914.5,492.5 911.9,487 871.7,527.2 879.7,527.2 		"/>
		<polygon class="st3" points="929.5,525.5 927.1,520 919.8,527.2 927.8,527.2 		"/>
		<polygon class="st3" points="922,509 919.6,503.5 895.7,527.2 903.7,527.2 		"/>
		<polygon class="st3" points="920.6,293.9 912.5,293.9 723.9,482.7 722.1,492.3 		"/>
		<polygon class="st3" points="825.4,461.2 876.8,409.8 874.3,404.4 823,455.6 		"/>
		<polygon class="st3" points="806.5,383.9 808.3,374.1 729,453.4 727.2,463.2 		"/>
		<polygon class="st3" points="811.6,354.6 813.4,345 734.1,424.2 732.3,434 		"/>
		<path class="st3" d="M818,444.4L951.5,311l16-17.1h-6.9L727.2,527.2c2.7,0,5.4,0,8,0l55.7-55.9L818,444.4z"/>
		<polygon class="st3" points="944.6,293.9 936.6,293.9 718.6,511.9 717,521.6 		"/>
		<path class="st3" d="M846.1,424.2l-25,26.9l33.2,76.1h38.9L846.1,424.2z"/>
		<path class="st3" d="M846.1,424.2l-25,26.9l33.2,76.1h38.9L846.1,424.2z"/>
	</g>
	<line class="st5" x1="450.1" y1="355.4" x2="378" y2="427.4"/>
	<path class="st3" d="M378,427.4c-2.2,9-5,17-7.8,23.9c-1.6,3.7-3.4,7.2-5.3,10.3c0,0.2-0.2,0.2-0.2,0.3c-0.2,0.2-0.3,0.5-0.3,0.6
		c-0.6,1.1-1.3,2.1-1.9,3c-1.6,2.4-3.2,4.5-5,6.4c-0.2,0.2-0.3,0.5-0.5,0.6c-0.2,0.3-0.5,0.5-0.6,0.8c-0.2,0.2-0.3,0.3-0.5,0.5l0,0
		c-0.2,0.2-0.5,0.5-0.6,0.6c-0.3,0.3-0.5,0.5-0.8,0.8c-0.3,0.2-0.5,0.5-0.8,0.6c-5.1,4.6-10.4,7.4-16,8c-1.1,0.2-2.2,0.2-3.4,0.2
		l0,0l-0.6,4l-1.8,9.8l-3.5,19.5l-1.6,8.6c13.8-5.4,26.3-13.9,37.6-25.3c18.6-18.6,31.9-43.2,39.6-73.7c0-0.2,0.2-0.3,0.2-0.5
		c0.2-0.3,0.2-0.8,0.3-1.1c0.2-0.3,0.2-0.8,0.3-1.1c1.1-4.6,2.1-9.3,2.9-14.3c0.8-4.8,1.6-9.5,2.1-13.9L378,427.4z"/>
	<path class="st3" d="M378,427.4c-2.2,9-5,17-7.8,23.9c-1.6,3.7-3.4,7.2-5.3,10.3c0,0.2-0.2,0.2-0.2,0.3c-0.2,0.2-0.3,0.5-0.3,0.6
		c-0.6,1.1-1.3,2.1-1.9,3c-1.6,2.4-3.2,4.5-5,6.4c-0.2,0.2-0.3,0.5-0.5,0.6c-0.2,0.3-0.5,0.5-0.6,0.8c-0.2,0.2-0.3,0.3-0.5,0.5l0,0
		c-0.2,0.2-0.5,0.5-0.6,0.6c-0.3,0.3-0.5,0.5-0.8,0.8c-0.3,0.2-0.5,0.5-0.8,0.6c-5.1,4.6-10.4,7.4-16,8c-1.1,0.2-2.2,0.2-3.4,0.2
		l0,0l-0.6,4l-1.8,9.8l-3.5,19.5l-1.6,8.6c13.8-5.4,26.3-13.9,37.6-25.3c18.6-18.6,31.9-43.2,39.6-73.7c0-0.2,0.2-0.3,0.2-0.5
		c0.2-0.3,0.2-0.8,0.3-1.1c0.2-0.3,0.2-0.8,0.3-1.1c1.1-4.6,2.1-9.3,2.9-14.3c0.8-4.8,1.6-9.5,2.1-13.9L378,427.4z"/>
	<path class="st3" d="M619.9,427.4c-2.2,9-5,17-7.8,23.9c-1.6,3.7-3.4,7.2-5.3,10.3c0,0.2-0.2,0.2-0.2,0.3c-0.2,0.2-0.3,0.5-0.3,0.6
		c-0.6,1.1-1.3,2.1-1.9,3c-1.6,2.4-3.2,4.5-5,6.4c-0.2,0.2-0.3,0.5-0.5,0.6c-0.2,0.3-0.5,0.5-0.6,0.8c-0.2,0.2-0.3,0.3-0.5,0.5l0,0
		c-0.2,0.2-0.5,0.5-0.6,0.6c-0.3,0.3-0.5,0.5-0.8,0.8c-0.3,0.2-0.5,0.5-0.8,0.6c-5.1,4.6-10.4,7.4-16,8c-1.1,0.2-2.2,0.2-3.4,0.2
		l0,0l-0.6,4l-1.8,9.8l-3.5,19.5l-1.6,8.6c13.8-5.4,26.3-13.9,37.6-25.3c18.6-18.6,31.9-43.2,39.6-73.7c0-0.2,0.2-0.3,0.2-0.5
		c0.2-0.3,0.2-0.8,0.3-1.1c0.2-0.3,0.2-0.8,0.3-1.1c1.1-4.6,2.1-9.3,2.9-14.3c0.8-4.8,1.6-9.5,2.1-13.9L619.9,427.4z"/>
</g>
</svg>
