<?xml version="1.0" encoding="utf-8"?>
<!-- Generator: Adobe Illustrator 23.0.1, SVG Export Plug-In . SVG Version: 6.00 Build 0)  -->
<svg version="1.1" id="圖層_1" xmlns="http://www.w3.org/2000/svg" xmlns:xlink="http://www.w3.org/1999/xlink" x="0px" y="0px"
	 viewBox="0 0 307.6 137.6" style="enable-background:new 0 0 307.6 137.6;" xml:space="preserve">
<style type="text/css">
	.st0{fill:#77E5E8;}
	.st1{fill:none;stroke:#2D4234;stroke-width:0.5;stroke-miterlimit:10;}
	.st2{fill:none;stroke:#74EDBD;stroke-width:0.5;stroke-miterlimit:10;}
</style>
<g>
	<path class="st0" d="M40.2,39.9l-2.3,12.8c-2.5,12.8-8.5,21.5-18,26l-2.5-3.2C26.2,71.6,31.7,63.8,34,52l2.3-12.8L40.2,39.9z
		 M56.2,18c6.9,12.4,15.7,22.8,26.2,31.1l-2.5,3c-10.7-8.6-19.2-18.8-25.7-30.7c-9.4,8.7-21,15.4-34.8,20.5l-1.2-3.8
		c13.6-4.8,25.3-11.7,35.4-20.6L56.2,18z M64.4,44.1l-7.3,40.7L53.2,84l7.3-40.7L64.4,44.1z"/>
	<path class="st0" d="M157.6,39.4l-0.7,3.7l-29.1-5.3c-1.4,3.4-3,6.8-4.9,9.8l27.9,5l-8.7,48.1l-3.8-0.7l0.7-3.9l-47.2-8.5l-0.7,3.9
		l-3.8-0.7L96,42.8l23,4.1c1.9-3,3.6-6.2,4.8-9.9l-30.3-5.5l0.7-3.7L157.6,39.4z M103.6,86l6.7-36.9l-11.1-2L92.5,84L103.6,86z
		 M124.7,89.9l1.8-10.2l-17.5-3.2l-1.8,10.2L124.7,89.9z M127.2,76.3l1.8-9.9l-17.5-3.2l-1.8,9.9L127.2,76.3z M129.6,62.9l1.8-10
		l-17.5-3.2l-1.8,10L129.6,62.9z M139.7,92.6l6.7-36.9l-11.3-2l-6.7,36.9L139.7,92.6z"/>
	<path class="st0" d="M178.5,102.2l-17.1-3.1l-0.7,3.7l-3.7-0.7l4.2-23.3l20.8,3.7L178.5,102.2z M175.6,98.1l2.3-12.7L164.3,83
		L162,95.6L175.6,98.1z M183.4,71.8l-0.6,3.5l-19.7-3.6l0.6-3.5L183.4,71.8z M190.4,52.3l-0.6,3.6l-26.3-4.7l0.6-3.6L190.4,52.3z
		 M185.2,62l-0.6,3.4l-19.8-3.6l0.6-3.4L185.2,62z M180.7,48.6l-3.6,0.7c-0.7-3.2-1.7-6.4-2.9-9.5l3.8-0.3
		C179.2,42.8,180.1,45.9,180.7,48.6z M219.6,79.3l-0.6,3.6c-3.3,6.4-7.8,11.6-13.4,15.6c3.8,4.6,8.7,8.9,14.8,12.9l-2.7,2.9
		c-6.4-4.4-11.5-8.9-15.2-13.8c-6.1,3.5-13.3,5.9-21.6,7.1l-1.6-3.6c8.1-1.2,15-3.5,20.8-6.7c-4-6-6.1-12.3-6.7-18.9l-4.8-0.9
		l0.7-3.7L219.6,79.3z M220.3,50.6l-2.9,15.8c-0.3,1.9,0.5,3,2.5,3.3l5.6,1l-0.6,3.6l-6.4-1.2c-4-0.7-5.7-3-5-6.8l2.3-12.8
		l-12.5-2.2l-0.7,3.9c-1.3,7-5.5,11.9-12.8,14.5l-2.1-3.3c6.3-2,10-5.9,11-11.5l1.4-7.9L220.3,50.6z M203.1,95.4
		c5.1-3.5,9-7.8,12-13L197,79.1C197.6,84.8,199.7,90.3,203.1,95.4z"/>
	<path class="st0" d="M231.5,116.7l-3.7-0.7l4.4-24.5l21.3,3.8l-4.2,23.5l-3.7-0.7l0.6-3.4l-13.8-2.5L231.5,116.7z M249.1,98.3
		l-13.8-2.5l-2.3,12.9l13.8,2.5L249.1,98.3z M255.2,84.8l-0.6,3.6l-21-3.8l0.6-3.6L255.2,84.8z M261.7,65.2l-0.7,3.7L234.4,64
		l0.7-3.7L261.7,65.2z M257,75.1l-0.6,3.5l-21-3.8l0.6-3.5L257,75.1z M251.6,61.5l-3.5,0.6c-0.6-3.2-1.4-6.3-2.5-9.4l3.9-0.3
		C250.5,55.7,251.2,58.8,251.6,61.5z M285.3,59.2l-4.3,24l16.9,3l-0.7,3.7l-16.9-3l-6.8,37.4l-3.8-0.7l6.8-37.4l-16.6-3l0.7-3.7
		l16.6,3l4.3-24L285.3,59.2z"/>
</g>
<g>
	<path class="st1" d="M34.9,36.5l-2.3,12.8c-2.5,12.8-8.5,21.5-18,26l-2.5-3.2c8.8-3.9,14.3-11.8,16.6-23.5L31,35.8L34.9,36.5z
		 M50.9,14.5C57.9,27,66.6,37.3,77.1,45.7l-2.5,3C63.9,40.1,55.3,29.9,48.9,18c-9.4,8.7-21,15.4-34.8,20.5l-1.2-3.8
		C26.4,29.9,38.2,23,48.2,14.1L50.9,14.5z M59.2,40.6l-7.3,40.7l-3.9-0.7L55.3,40L59.2,40.6z"/>
	<path class="st1" d="M152.3,36l-0.7,3.7l-29.1-5.3c-1.4,3.4-3,6.8-4.9,9.8l27.9,5l-8.7,48.1l-3.8-0.7l0.7-3.9l-47.2-8.5l-0.7,3.9
		l-3.8-0.7l8.7-48.1l23,4.1c1.9-3,3.6-6.2,4.8-9.9l-30.3-5.5l0.7-3.7L152.3,36z M98.4,82.6l6.7-36.9l-11.1-2l-6.7,36.9L98.4,82.6z
		 M119.5,86.4l1.8-10.2L103.9,73L102,83.3L119.5,86.4z M121.9,72.8l1.8-9.9l-17.5-3.2l-1.8,9.9L121.9,72.8z M124.3,59.5l1.8-10
		l-17.5-3.2l-1.8,10L124.3,59.5z M134.5,89.1l6.7-36.9l-11.3-2l-6.7,36.9L134.5,89.1z"/>
	<path class="st1" d="M173.3,98.8l-17.1-3.1l-0.7,3.7l-3.7-0.7l4.2-23.3l20.8,3.7L173.3,98.8z M170.3,94.7l2.3-12.7l-13.5-2.4
		l-2.3,12.7L170.3,94.7z M178.2,68.4l-0.6,3.5l-19.7-3.6l0.6-3.5L178.2,68.4z M185.2,48.9l-0.6,3.6l-26.3-4.7l0.6-3.6L185.2,48.9z
		 M180,58.6l-0.6,3.4l-19.8-3.6l0.6-3.4L180,58.6z M175.4,45.2l-3.6,0.7c-0.7-3.2-1.7-6.4-2.9-9.5l3.8-0.3
		C174,39.4,174.9,42.5,175.4,45.2z M214.3,75.9l-0.6,3.6c-3.3,6.4-7.8,11.6-13.4,15.6C204,99.7,209,104,215,108l-2.7,2.9
		c-6.4-4.4-11.5-8.9-15.2-13.8c-6.1,3.5-13.3,5.9-21.6,7.1l-1.6-3.6c8.1-1.2,15-3.5,20.8-6.7c-4-6-6.1-12.3-6.7-18.9l-4.8-0.9
		l0.7-3.7L214.3,75.9z M215.1,47.2L212.2,63c-0.3,1.9,0.5,3,2.5,3.3l5.6,1l-0.6,3.6l-6.4-1.2c-4-0.7-5.7-3-5-6.8l2.3-12.8l-12.5-2.2
		l-0.7,3.9c-1.3,7-5.5,11.9-12.8,14.5l-2.1-3.3c6.3-2,10-5.9,11-11.5l1.4-7.9L215.1,47.2z M197.9,91.9c5.1-3.5,9-7.8,12-13
		l-18.2-3.3C192.4,81.4,194.4,86.9,197.9,91.9z"/>
	<path class="st1" d="M226.3,113.2l-3.7-0.7l4.4-24.5l21.3,3.8l-4.2,23.5l-3.7-0.7l0.6-3.4l-13.8-2.5L226.3,113.2z M243.9,94.8
		L230,92.3l-2.3,12.9l13.8,2.5L243.9,94.8z M250,81.4l-0.6,3.6l-21-3.8l0.6-3.6L250,81.4z M256.5,61.8l-0.7,3.7l-26.6-4.8l0.7-3.7
		L256.5,61.8z M251.7,71.6l-0.6,3.5l-21-3.8l0.6-3.5L251.7,71.6z M246.4,58.1l-3.5,0.6c-0.6-3.2-1.4-6.3-2.5-9.4l3.9-0.3
		C245.3,52.3,246,55.4,246.4,58.1z M280,55.8l-4.3,24l16.9,3l-0.7,3.7l-16.9-3l-6.8,37.4l-3.8-0.7l6.8-37.4l-16.6-3l0.7-3.7l16.6,3
		l4.3-24L280,55.8z"/>
</g>
<g>
	<path class="st2" d="M41.5,32.4l-2.3,12.8c-2.5,12.8-8.5,21.5-18,26L18.7,68c8.8-3.9,14.3-11.8,16.6-23.5l2.3-12.8L41.5,32.4z
		 M57.5,10.5c6.9,12.4,15.7,22.8,26.2,31.1l-2.5,3c-10.7-8.6-19.2-18.8-25.7-30.7c-9.4,8.7-21,15.4-34.8,20.5l-1.2-3.8
		C33,25.8,44.8,18.9,54.8,10L57.5,10.5z M65.7,36.6l-7.3,40.7l-3.9-0.7l7.3-40.7L65.7,36.6z"/>
	<path class="st2" d="M158.9,31.9l-0.7,3.7l-29.1-5.3c-1.4,3.4-3,6.8-4.9,9.8l27.9,5l-8.7,48.1l-3.8-0.7l0.7-3.9l-47.2-8.5l-0.7,3.9
		l-3.8-0.7l8.7-48.1l23,4.1c1.9-3,3.6-6.2,4.8-9.9l-30.3-5.5l0.7-3.7L158.9,31.9z M105,78.6l6.7-36.9l-11.1-2l-6.7,36.9L105,78.6z
		 M126.1,82.4l1.8-10.2L110.5,69l-1.8,10.2L126.1,82.4z M128.5,68.8l1.8-9.9l-17.5-3.2l-1.8,9.9L128.5,68.8z M130.9,55.5l1.8-10
		l-17.5-3.2l-1.8,10L130.9,55.5z M141,85.1l6.7-36.9l-11.3-2L129.7,83L141,85.1z"/>
	<path class="st2" d="M179.9,94.8l-17.1-3.1l-0.7,3.7l-3.7-0.7l4.2-23.3l20.8,3.7L179.9,94.8z M176.9,90.6l2.3-12.7l-13.5-2.4
		l-2.3,12.7L176.9,90.6z M184.8,64.4l-0.6,3.5l-19.7-3.6l0.6-3.5L184.8,64.4z M191.8,44.9l-0.6,3.6l-26.3-4.7l0.6-3.6L191.8,44.9z
		 M186.5,54.6l-0.6,3.4l-19.8-3.6l0.6-3.4L186.5,54.6z M182,41.2l-3.6,0.7c-0.7-3.2-1.7-6.4-2.9-9.5l3.8-0.3
		C180.5,35.4,181.5,38.4,182,41.2z M220.9,71.9l-0.6,3.6c-3.3,6.4-7.8,11.6-13.4,15.6c3.8,4.6,8.7,8.9,14.8,12.9l-2.7,2.9
		c-6.4-4.4-11.5-8.9-15.2-13.8c-6.1,3.5-13.3,5.9-21.6,7.1l-1.6-3.6c8.1-1.2,15-3.5,20.8-6.7c-4-6-6.1-12.3-6.7-18.9l-4.8-0.9
		l0.7-3.7L220.9,71.9z M221.6,43.2L218.8,59c-0.3,1.9,0.5,3,2.5,3.3l5.6,1l-0.6,3.6l-6.4-1.2c-4-0.7-5.7-3-5-6.8l2.3-12.8l-12.5-2.2
		l-0.7,3.9c-1.3,7-5.5,11.9-12.8,14.5l-2.1-3.3c6.3-2,10-5.9,11-11.5l1.4-7.9L221.6,43.2z M204.5,87.9c5.1-3.5,9-7.8,12-13
		l-18.2-3.3C199,77.4,201,82.8,204.5,87.9z"/>
	<path class="st2" d="M232.9,109.2l-3.7-0.7l4.4-24.5l21.3,3.8l-4.2,23.5l-3.7-0.7l0.6-3.4l-13.8-2.5L232.9,109.2z M250.4,90.8
		l-13.8-2.5l-2.3,12.9l13.8,2.5L250.4,90.8z M256.6,77.3l-0.6,3.6l-21-3.8l0.6-3.6L256.6,77.3z M263.1,57.7l-0.7,3.7l-26.6-4.8
		l0.7-3.7L263.1,57.7z M258.3,67.6l-0.6,3.5l-21-3.8l0.6-3.5L258.3,67.6z M252.9,54l-3.5,0.6c-0.6-3.2-1.4-6.3-2.5-9.4l3.9-0.3
		C251.8,48.2,252.5,51.3,252.9,54z M286.6,51.7l-4.3,24l16.9,3l-0.7,3.7l-16.9-3l-6.8,37.4l-3.8-0.7l6.8-37.4l-16.6-3l0.7-3.7
		l16.6,3l4.3-24L286.6,51.7z"/>
</g>
</svg>
