<?xml version="1.0" encoding="utf-8"?>
<!-- Generator: Adobe Illustrator 23.0.1, SVG Export Plug-In . SVG Version: 6.00 Build 0)  -->
<svg version="1.1" id="Layer" xmlns="http://www.w3.org/2000/svg" xmlns:xlink="http://www.w3.org/1999/xlink" x="0px" y="0px"
	 viewBox="0 0 140 140" style="enable-background:new 0 0 140 140;" xml:space="preserve">
<style type="text/css">
	.st0{fill:none;stroke:#2D4234;stroke-width:3;stroke-linecap:round;stroke-linejoin:round;stroke-miterlimit:10;stroke-dasharray:  1000;stroke-dashoffset: 1000;animation: dash 5s linear forwards;animation-delay: .5s;}
	.st1{fill:none;stroke:#77E5E8;stroke-width:3;stroke-linecap:round;stroke-linejoin:round;stroke-miterlimit:10;stroke-dasharray:  1000;stroke-dashoffset: 1000;animation: dash 30s linear forwards;animation-delay: .5s;}
	.st2{fill:#74EDBD;}
	.st3{fill:#5DD8A3;}
	.st4{fill:#2D4234;}
	.st5{fill:#77E5E8;}
	.st6{fill:#EAEA75;}
	#Icon_Group{
		opacity: 0;
		animation: op .5s linear forwards;
		animation-delay: 0s;}
	#Deco_Group{
		opacity: 0;
		transform: scale(0.5, 0.5);
		transform-origin: center;
		animation: decoop .3s linear forwards;
		animation-timing-function: cubic-bezier(.35,.12,.47,1.82);
		animation-delay: 1.3s;}
	@keyframes dash {
	  to {
	    stroke-dashoffset: 0;
	  }
	}
	@keyframes op {
	  to {
	    opacity: 1;
	  }
	}
	@keyframes decoop {
	  to {
	  	transform: scale(1, 1);
	    opacity: 1;
	  }
	}
</style>
<g id="Line_Group">
	<path class="st0" d="M68.7,138.5c-1.5,0-3.1-0.1-4.6-0.2c-5.8-0.5-11.4-1.7-16.7-3.5c-26.8-9.3-46-34.8-46-64.7
		c0-14,4.2-27,11.4-37.8"/>
	<path class="st0" d="M138.1,77.3c-3.3,31-27.2,55.8-57.7,60.4"/>
	<path class="st1" d="M135.6,50.2c1.9,6.3,2.9,12.9,2.9,19.8"/>
	<path class="st0" d="M24.1,19.2c4-3.6,8.4-6.7,13.1-9.3c2.2-1.2,4.5-2.3,6.9-3.3c8-3.3,16.7-5.1,25.9-5.1
		c28.1,0,52.3,16.9,62.8,41.2"/>
</g>
<g id="Icon_Group">
	<path class="st2" d="M83.1,53.9L63.9,84H53.6c-1.7,0-3.1-1.5-3.1-3.4V57.3c0-1.8,1.4-3.4,3.1-3.4C53.6,53.9,83.1,53.9,83.1,53.9z"
		/>
	<path class="st3" d="M93.6,57.3v23.4c0,1.9-1.4,3.4-3.1,3.4H63.9L83.1,54h7.3C92.2,53.9,93.6,55.4,93.6,57.3z"/>
	<path class="st4" d="M102.2,80.6c-0.8,0-1.5-0.7-1.5-1.5V45.8c0-1.8-1.5-3.3-3.3-3.3H40.6c-1.8,0-3.3,1.5-3.3,3.3V79
		c0,0.8-0.7,1.5-1.5,1.5s-1.5-0.7-1.5-1.5V45.8c0-3.5,2.8-6.3,6.3-6.3h56.8c3.5,0,6.3,2.8,6.3,6.3V79
		C103.7,79.9,103.1,80.6,102.2,80.6z"/>
	<path class="st4" d="M92.4,80.8c-0.8,0-1.5-0.7-1.5-1.5v-25c0-1.2-0.9-2.1-1.9-2.1H49c-1,0-1.9,1-1.9,2.1v25c0,0.8-0.7,1.5-1.5,1.5
		s-1.5-0.7-1.5-1.5v-25c0-2.8,2.2-5.1,4.9-5.1h40c2.7,0,4.9,2.3,4.9,5.1v25C93.9,80.1,93.2,80.8,92.4,80.8z"/>
	<path class="st4" d="M103.6,98.5H34.4c-4.1,0-7.4-2.3-7.4-5.1v-7.6c0-0.8,0.7-1.5,1.5-1.5h31.3c0.7,0,1.3,0.5,1.5,1.2
		c0.3,1.5,1.7,2.6,3.3,2.6h8.1c1.6,0,2.9-1.1,3.3-2.6c0.1-0.7,0.8-1.2,1.5-1.2h32.1c0.8,0,1.5,0.7,1.5,1.5v7.6
		C111,96.3,107.8,98.5,103.6,98.5z M30,87.2v6.1c0,0.9,1.7,2.1,4.4,2.1h69.2c2.7,0,4.4-1.3,4.4-2.1v-6.1H78.4
		c-1,2.3-3.3,3.8-5.8,3.8h-8.1c-2.5,0-4.8-1.6-5.8-3.8H30z"/>
	<g>
		<g>
			<path class="st4" d="M60.3,66.4l-4.5,2l4.5,2.1c0.4,0.2,0.6,0.5,0.6,0.9v0.9c0,0.3-0.2,0.7-0.5,0.8c-0.2,0.1-0.4,0.2-0.5,0.2
				s-0.3,0-0.4-0.1l-7.6-3.5c-0.4-0.2-0.6-0.5-0.6-0.9V68c0-0.4,0.2-0.7,0.6-0.9l7.6-3.5c0.3-0.1,0.7-0.1,1,0.1
				c0.3,0.2,0.5,0.5,0.5,0.8v0.9C60.9,65.8,60.6,66.2,60.3,66.4z"/>
		</g>
		<g>
			<path class="st4" d="M74.9,60.4l-5.4,13.8c-0.2,0.4-0.5,0.6-0.9,0.6h-0.8c-0.3,0-0.6-0.2-0.8-0.4c-0.2-0.3-0.2-0.6-0.1-0.9
				l5.4-13.8c0.1-0.4,0.5-0.6,0.9-0.6H74c0.3,0,0.6,0.2,0.8,0.4S75,60,74.9,60.4z"/>
		</g>
		<g>
			<path class="st4" d="M84.7,68v0.8c0,0.4-0.2,0.8-0.6,0.9l-7.6,3.5c-0.1,0.1-0.3,0.1-0.4,0.1c-0.2,0-0.4,0-0.5-0.2
				c-0.3-0.2-0.5-0.5-0.5-0.8v-0.9c0-0.4,0.2-0.8,0.6-0.9l4.5-2.1l-4.5-2c-0.4-0.2-0.6-0.5-0.6-0.9v-0.9c0-0.3,0.2-0.6,0.5-0.8
				s0.6-0.2,1-0.1l7.6,3.5C84.5,67.3,84.7,67.6,84.7,68z"/>
		</g>
	</g>
</g>
<g id="Deco_Group">
	<path class="st0" d="M105.2,128.7"/>
	<circle class="st5" cx="61.2" cy="18.7" r="1.8"/>
	<circle class="st5" cx="18.4" cy="60.1" r="1.8"/>
	<circle class="st5" cx="41.3" cy="84.1" r="1.8"/>
	<circle class="st5" cx="83.5" cy="117.6" r="1.8"/>
	<path class="st5" d="M48.4,117.2c-1.4,0-2.7-0.9-3.1-2.3c-0.3-0.8-0.2-1.7,0.3-2.5s1.1-1.3,1.9-1.6c1.7-0.5,3.6,0.5,4.1,2.2
		s-0.5,3.6-2.2,4.1C49,117.1,48.7,117.2,48.4,117.2z M48.4,111.6c-0.2,0-0.4,0-0.7,0.1c-0.6,0.2-1.1,0.6-1.3,1.1
		c-0.3,0.5-0.4,1.2-0.2,1.7c0.4,1.2,1.6,1.9,2.8,1.5s1.9-1.6,1.5-2.8C50.2,112.3,49.3,111.6,48.4,111.6z"/>
	<path class="st2" d="M117.2,46.4c-0.1,0-0.2,0-0.3-0.1l-4.2-2.7c-0.2-0.2-0.3-0.5-0.1-0.7c0.2-0.2,0.5-0.3,0.7-0.1l4.2,2.7
		c0.2,0.2,0.3,0.5,0.1,0.7C117.6,46.3,117.4,46.4,117.2,46.4z"/>
	<path class="st2" d="M113.8,47.1c-0.1,0-0.2,0-0.3-0.1c-0.2-0.2-0.3-0.5-0.1-0.7l2.7-4.2c0.2-0.2,0.5-0.3,0.7-0.1s0.3,0.5,0.1,0.7
		l-2.7,4.2C114.1,47,113.9,47.1,113.8,47.1z"/>
	<path class="st2" d="M96.6,76.7c-0.1,0-0.2,0-0.3-0.1l-4.2-2.7c-0.2-0.2-0.3-0.5-0.1-0.7c0.2-0.2,0.5-0.3,0.7-0.1l4.2,2.7
		c0.2,0.2,0.3,0.5,0.1,0.7C96.9,76.6,96.8,76.7,96.6,76.7z"/>
	<path class="st2" d="M93.1,77.4c-0.1,0-0.2,0-0.3-0.1c-0.2-0.2-0.3-0.5-0.1-0.7l2.7-4.2c0.2-0.2,0.5-0.3,0.7-0.1
		c0.2,0.2,0.3,0.5,0.1,0.7l-2.7,4.2C93.4,77.3,93.3,77.4,93.1,77.4z"/>
	<path class="st6" d="M17,102.9l2.7,5.4c0.2,0.4,0.6,0.7,1,0.7l6,0.9c1.1,0.2,1.5,1.5,0.7,2.2l-4.3,4.2c-0.3,0.3-0.4,0.7-0.4,1.2
		l1,6c0.2,1.1-0.9,1.9-1.9,1.4l-5.3-2.8c-0.4-0.2-0.8-0.2-1.2,0l-5.3,2.8c-1,0.5-2.1-0.3-1.9-1.4l1-6c0.1-0.4-0.1-0.9-0.4-1.2
		l-4.3-4.2C3.6,111.3,4,110,5,109.9l6-0.9c0.4-0.1,0.8-0.3,1-0.7l2.7-5.4C15.2,101.9,16.5,101.9,17,102.9z"/>
</g>
</svg>
