<?xml version="1.0" encoding="utf-8"?>
<!-- Generator: Adobe Illustrator 23.0.1, SVG Export Plug-In . SVG Version: 6.00 Build 0)  -->
<svg version="1.1" id="Layer" xmlns="http://www.w3.org/2000/svg" xmlns:xlink="http://www.w3.org/1999/xlink" x="0px" y="0px"
	 viewBox="0 0 140 140" style="enable-background:new 0 0 140 140;" xml:space="preserve">
<style type="text/css">
	.st0{fill:none;stroke:#74EDBD;stroke-width:3;stroke-linecap:round;stroke-linejoin:round;stroke-miterlimit:10;stroke-dasharray:  1000;stroke-dashoffset: 1000;animation: dash 30s linear forwards;animation-delay: 2.1s;}
	.st1{fill:none;stroke:#2D4234;stroke-width:3;stroke-linecap:round;stroke-linejoin:round;stroke-miterlimit:10;stroke-dasharray: 1000;stroke-dashoffset: 1000;animation: dash 5s linear forwards;animation-delay: 2.1s;}
	.st2{fill:#77E5E8;}
	.st3{fill:#B4D1D1;}
	.st4{fill:#2D4234;}
	.st5{fill:#74EDBD;}
	.st6{fill:#EAEA75;}
	#Icon_Group{
		opacity: 0;
		animation: op .5s linear forwards;
		animation-delay: 1.6s;}
	#Deco_Group{
		opacity: 0;
		transform: scale(0.5, 0.5);
		transform-origin: center;
		animation: decoop .3s linear forwards;
		animation-timing-function: cubic-bezier(.35,.12,.47,1.82);
		animation-delay: 2.9s;}
	@keyframes dash {
	  to {
	    stroke-dashoffset: 0;
	  }
	}
	@keyframes op {
	  to {
	    opacity: 1;
	  }
	}
	@keyframes decoop {
	  to {
	  	transform: scale(1, 1);
	    opacity: 1;
	  }
	}
</style>
<g id="Circle_Group">
	<path class="st0" d="M21.2,21.9c4.7-4.8,10.1-8.8,16-12.1"/>
	<path class="st1" d="M47.5,134.7c-26.8-9.3-46-34.8-46-64.7c0-15.8,5.4-30.4,14.4-42"/>
	<path class="st1" d="M130.2,37.3c5.3,9.7,8.3,20.8,8.3,32.6c0,37.8-30.7,68.5-68.5,68.5c-2,0-3.9-0.1-5.9-0.2"/>
	<path class="st1" d="M44.1,6.6c8-3.3,16.7-5.1,25.9-5.1c22.1,0,41.7,10.5,54.3,26.7"/>
</g>
<g id="Icon_Group">
	<path class="st2" d="M73.8,103.2H80c0.6,0,1-0.5,1-1V97c0-0.6-0.5-1-1-1h-1.3H67.2h-1.3c-0.6,0-1,0.5-1,1v5.2c0,0.6,0.5,1,1,1h6.2
		H73.8z"/>
	
		<rect x="62.5" y="78.2" transform="matrix(0.5167 -0.8562 0.8562 0.5167 -29.6594 105.8503)" class="st3" width="32.9" height="2"/>
	<path class="st4" d="M78.5,102.4H62.4c-0.8,0-1.5-0.7-1.5-1.5v-7.2c0-0.8,0.7-1.5,1.5-1.5h16.1c0.8,0,1.5,0.7,1.5,1.5v7.2
		C80,101.8,79.3,102.4,78.5,102.4z M63.9,99.4H77v-4.2H63.9V99.4z"/>
	<path class="st4" d="M75,95.2c-0.3,0-0.5-0.1-0.8-0.2c-0.7-0.4-0.9-1.4-0.5-2.1l15-24.8L70.4,34.3L52.1,68.2l15,24.8
		c0.4,0.7,0.2,1.6-0.5,2.1c-0.7,0.4-1.6,0.2-2.1-0.5L49.1,69c-0.3-0.5-0.3-1,0-1.5l20-37c0.3-0.5,0.8-0.8,1.3-0.8l0,0
		c0.6,0,1.1,0.3,1.3,0.8l20,37c0.3,0.5,0.2,1,0,1.5L76.3,94.5C76,95,75.5,95.2,75,95.2z"/>
	<path class="st4" d="M70.4,64.1c-0.8,0-1.5-0.7-1.5-1.5V31.2c0-0.8,0.7-1.5,1.5-1.5s1.5,0.7,1.5,1.5v31.4
		C71.9,63.4,71.3,64.1,70.4,64.1z"/>
	<circle class="st2" cx="72.1" cy="68.2" r="3.4"/>
	<path class="st4" d="M70.5,71.8c-2.6,0-4.8-2.1-4.8-4.8c0-2.6,2.1-4.8,4.8-4.8c2.6,0,4.8,2.1,4.8,4.8
		C75.2,69.6,73.1,71.8,70.5,71.8z M70.5,64.2c-1.5,0-2.8,1.2-2.8,2.8s1.2,2.8,2.8,2.8s2.8-1.2,2.8-2.8S72,64.2,70.5,64.2z"/>
</g>
<g id="Deco_Group">
	<circle class="st5" cx="64.9" cy="114.5" r="1.8"/>
	<circle class="st5" cx="118.2" cy="87.7" r="1.8"/>
	<circle class="st5" cx="93.1" cy="55.8" r="1.8"/>
	<circle class="st5" cx="73.2" cy="13.4" r="1.8"/>
	<path class="st2" d="M22.8,76.1c-0.1,0-0.3-0.1-0.4-0.2L19.2,72c-0.2-0.2-0.1-0.5,0.1-0.7s0.5-0.1,0.7,0.1l3.2,3.9
		c0.2,0.2,0.1,0.5-0.1,0.7C23,76.1,22.9,76.1,22.8,76.1z"/>
	<path class="st2" d="M19.2,75.8c-0.1,0-0.3-0.1-0.4-0.2c-0.2-0.2-0.1-0.5,0.1-0.7l3.9-3.2c0.2-0.2,0.5-0.1,0.7,0.1s0.1,0.5-0.1,0.7
		l-3.9,3.2C19.5,75.7,19.3,75.8,19.2,75.8z"/>
	<path class="st2" d="M51.5,53.4c-0.1,0-0.3-0.1-0.4-0.2L48,49.4c-0.2-0.2-0.1-0.5,0.1-0.7c0.2-0.2,0.5-0.1,0.7,0.1l3.2,3.9
		c0.2,0.2,0.1,0.5-0.1,0.7C51.8,53.4,51.6,53.4,51.5,53.4z"/>
	<path class="st2" d="M48,53.1c-0.1,0-0.3-0.1-0.4-0.2c-0.2-0.2-0.1-0.5,0.1-0.7l3.9-3.2c0.2-0.2,0.5-0.1,0.7,0.1
		c0.2,0.2,0.1,0.5-0.1,0.7L48.3,53C48.2,53,48.1,53.1,48,53.1z"/>
	<path class="st6" d="M17,102.8l2.7,5.4c0.2,0.4,0.6,0.7,1,0.7l6,0.9c1.1,0.2,1.5,1.5,0.7,2.2l-4.3,4.2c-0.3,0.3-0.4,0.7-0.4,1.2
		l1,6c0.2,1.1-0.9,1.9-1.9,1.4l-5.3-2.8c-0.4-0.2-0.8-0.2-1.2,0l-5.3,2.8c-1,0.5-2.1-0.3-1.9-1.4l1-6c0.1-0.4-0.1-0.9-0.4-1.2
		L4.4,112c-0.8-0.8-0.3-2.1,0.7-2.2l6-0.9c0.4-0.1,0.8-0.3,1-0.7l2.7-5.4C15.2,101.8,16.6,101.8,17,102.8z"/>
	<path class="st5" d="M62.4,96.5c-1.4,0-2.7-0.9-3.1-2.3l0,0c-0.5-1.7,0.5-3.6,2.2-4.1c0.8-0.3,1.7-0.2,2.5,0.3
		c0.8,0.4,1.3,1.1,1.6,1.9c0.5,1.7-0.5,3.6-2.2,4.1C63,96.4,62.7,96.5,62.4,96.5z M60.2,93.9c0.4,1.2,1.6,1.9,2.8,1.5
		c1.2-0.4,1.9-1.6,1.5-2.8c-0.2-0.6-0.6-1.1-1.1-1.3s-1.2-0.3-1.7-0.2C60.5,91.4,59.8,92.6,60.2,93.9L60.2,93.9z"/>
</g>
</svg>
